# xmcd CD database file
#
# Track frame offsets:
#	150
#	27920
#	59832
#	81702
#	114113
#	149174
#	170139
#	190104
#	214299
#	242127
#	268110
#	293128
#
# Disc length: 4191 seconds
#
# Revision: 0
# Processed by: cddbd v1.4PL0 Copyright (c) Steve Scherf et al.
# Submitted via: CDex 1.51
#
DISCID=c6105d0c
DTITLE=Pim Jacobs Trio - Standards 1
DYEAR=1986
DGENRE=Jazz
TTITLE0=Just Friends
TTITLE1=My Romance
TTITLE2=Polka Dots And Moonbeams
TTITLE3=Our Love Is Here To Stay
TTITLE4=The Touch Of Your Lips
TTITLE5=Easy Living
TTITLE6=Taking A Chance Of Love
TTITLE7=East Of The Sun
TTITLE8=The Man I Love
TTITLE9=Alone Together
TTITLE10=Too Marvellous For Words
TTITLE11=Moonlight In vermont
EXTD=YEAR: 1986
EXTT0=
EXTT1=
EXTT2=
EXTT3=
EXTT4=
EXTT5=
EXTT6=
EXTT7=
EXTT8=
EXTT9=
EXTT10=
EXTT11=
PLAYORDER=
